inDegrees=no
num_controls=7
num_derivatives=13
num_iterations=88
num_multipliers=7
num_parameters=0
num_slacks=7
num_states=26
objective=0.484552
objective_accelerations=0.003472
objective_balance=0.002680
objective_effort=0.010039
objective_height=0.446250
objective_ligament=0.022111
solver_duration=1063.840878
status=Solve_Succeeded
success=true
DataType=double
version=3
OpenSimVersion=4.5
endheader
time	/jointset/ground_pelvis/pelvis_tilt/value	/jointset/ground_pelvis/pelvis_tx/value	/jointset/ground_pelvis/pelvis_ty/value	/jointset/hip_l/hip_flexion_l/value	/jointset/hip_l/hip_adduction_l/value	/jointset/hip_l/hip_rotation_l/value	/jointset/back/lumbar_extension/value	/jointset/patellofemoral_l/patellar_flexion_l/value	/jointset/knee_l/knee_flexion_l/value	/jointset/knee_l/knee_adduction_l/value	/jointset/knee_l/knee_rotation_l/value	/jointset/ankle_l/ankle_angle_l/value	/jointset/subtalar_l/subtalar_angle_l/value	/jointset/ground_pelvis/pelvis_tilt/speed	/jointset/ground_pelvis/pelvis_tx/speed	/jointset/ground_pelvis/pelvis_ty/speed	/jointset/hip_l/hip_flexion_l/speed	/jointset/hip_l/hip_adduction_l/speed	/jointset/hip_l/hip_rotation_l/speed	/jointset/back/lumbar_extension/speed	/jointset/patellofemoral_l/patellar_flexion_l/speed	/jointset/knee_l/knee_flexion_l/speed	/jointset/knee_l/knee_adduction_l/speed	/jointset/knee_l/knee_rotation_l/speed	/jointset/ankle_l/ankle_angle_l/speed	/jointset/subtalar_l/subtalar_angle_l/speed	/forceset/tau_hip_flexion_l	/forceset/tau_hip_adduction_l	/forceset/tau_hip_rotation_l	/forceset/tau_knee_flexion_l	/forceset/tau_ankle_angle_l	/forceset/tau_subtalar_angle_l	/forceset/tau_lumbar_extension	lambda_cid13_p0	lambda_cid13_p1	lambda_cid13_p2	lambda_cid13_p3	lambda_cid13_p4	lambda_cid13_p5	lambda_cid14_p0	/jointset/ground_pelvis/pelvis_tilt/accel	/jointset/ground_pelvis/pelvis_tx/accel	/jointset/ground_pelvis/pelvis_ty/accel	/jointset/hip_l/hip_flexion_l/accel	/jointset/hip_l/hip_adduction_l/accel	/jointset/hip_l/hip_rotation_l/accel	/jointset/back/lumbar_extension/accel	/jointset/patellofemoral_l/patellar_flexion_l/accel	/jointset/knee_l/knee_flexion_l/accel	/jointset/knee_l/knee_adduction_l/accel	/jointset/knee_l/knee_rotation_l/accel	/jointset/ankle_l/ankle_angle_l/accel	/jointset/subtalar_l/subtalar_angle_l/accel	gamma_cid13_p0	gamma_cid13_p1	gamma_cid13_p2	gamma_cid13_p3	gamma_cid13_p4	gamma_cid13_p5	gamma_cid14_p0
0.5	-0.008865396677825359	0.07328382095583846	0.9276801726222356	0.2572996658985088	-0.2613665774545664	-0.3238434793256058	-0.434711933590407	0.2365468989753236	0.2365468989753192	-0.1062654481939135	-0.1744828860728971	0.02830120904699906	0.04735816299209127	0.07671793685962681	0.05588674501472216	0.0174978714735612	-0.1853469190724522	0.03627924356417249	-0.04160985609268139	-0.1206480851610719	-0.06218688424537725	-0.06218688424537173	0.05752731865352249	0.000146527129294417	0.06432395461503652	0.06397324155524632	-0.0711068955768447	0.1004103783548936	-0.006840045829592298	-0.09870644543553161	0.0656754696938972	-0.05058540673970455	0.1510971527982007	-27.84862658554401	22.80154758209874	0.5294799139096614	4.602080314882406	-704.9157705433324	-14.01482998180276	-22.75510827119254	0.1654209430781786	-0.01132426607410924	0.01835776715042985	-0.2702489263792073	0.0282939081986158	-0.06387681327832488	0.09444470866742556	-0.1809213162927651	-0.1809213162927543	-0.004855709663122036	-0.0003426903171571388	-0.07759315035884153	0.007376270693840699	-2.254308084733069e-09	4.267307637153639e-09	-2.692726482365541e-09	1.46994878182763e-09	-3.590535198100821e-09	6.062006689482897e-09	-4.997762536923107e-10
0.51	-0.00809011962146745	0.0738420866527557	0.9278560377808569	0.2554330100757364	-0.2610024042604838	-0.3242628018408237	-0.4359134395153602	0.2359161438944251	0.2359161438944366	-0.1056904293780981	-0.1744815336021754	0.02894056628740005	0.0479982263602624	0.07833148218360129	0.05576352755147308	0.01767408806235914	-0.1879755408600368	0.03655226189797845	-0.04225136297456376	-0.1196396349057128	-0.06396569521349764	-0.0639656952134896	0.05746849187511862	0.0001250885589446065	0.06354115296616533	0.06403349257257634	-0.0712648708523357	0.1007991965952393	-0.006794633833163516	-0.09750733952595843	0.06390785744822003	-0.05051951069798895	0.1514208575518022	-28.41124772960839	22.84806058047145	0.5487691802085918	4.753165452861087	-704.916449736294	-13.95215895129801	-22.74362217760124	0.1584222035329025	-0.01325021077023056	0.01709207356976668	-0.2578634879732074	0.02633624894541566	-0.0637944607411428	0.1060649224893431	-0.1765953715004234	-0.1765953715000479	-0.007588826269736008	-0.002876746322064399	-0.07957510802000908	0.004458255212297729	-2.314153020056986e-09	4.556358026999279e-09	-2.740721077832196e-09	1.485592079819825e-09	-3.646227120779867e-09	6.446707651446647e-09	-5.240042808169532e-10
0.52	-0.007298886936580538	0.07439903423017628	0.9280336327991318	0.2535403290984429	-0.2606355947924938	-0.3246884407918706	-0.4371044569900642	0.2352675538269566	0.2352675538269568	-0.105116237362907	-0.174480361978373	0.02957190522413696	0.04863871398619775	0.07990906256661197	0.05562312111539536	0.01784384340427155	-0.1905519499686298	0.03680649835073892	-0.04287314326036969	-0.1185503951095757	-0.06575388155876551	-0.06575388155875501	0.0573619585230886	0.0001103577514635503	0.06272029388254967	0.06405809310830046	-0.07142284612804531	0.1011880148356177	-0.006749221836796371	-0.09630823361649622	0.06214024520252018	-0.0504536146562461	0.1517445623052448	-28.97555488879616	22.89426650304058	0.5687953579699198	4.90994130978648	-704.9396337637299	-13.89294412447296	-22.73181866437836	0.1582279548852672	-0.01476206063969077	0.01706551777332552	-0.2598063905809008	0.02453753198950569	-0.05993149406307232	0.1106026168229899	-0.1827963917222828	-0.1827963917222823	-0.01439702438838034	0.000998862256573042	-0.08520463730757513	0.0002461743727055028	-2.291456600840114e-09	4.499987034044716e-09	-2.778012426082129e-09	1.478069584739042e-09	-3.91215938785865e-09	6.332645770897089e-09	-4.971893441641455e-10
0.53	-0.006492038558042228	0.07495449136001514	0.9282128956457103	0.251622124393882	-0.2602663286565391	-0.3251201958290938	-0.438284213084141	0.2346010322876329	0.2346010322876448	-0.1045433336539344	-0.1744792964562984	0.0301948486791894	0.04927927900943944	0.08145621487366933	0.05546537890666584	0.01800786423142502	-0.1930818932446109	0.03704438815093175	-0.04347494714837925	-0.1173904101862221	-0.06755217116265345	-0.06755217116265913	0.05721242257773858	0.0001039208379611016	0.06186233425234885	0.06404988680695879	-0.07153163131565941	0.1015533146097034	-0.006709100165479576	-0.09515146351138193	0.06043763867362567	-0.05039899706976565	0.1520309903433168	-29.51794808344683	22.94213749152045	0.5878663823795894	5.05483414718655	-704.9364930941178	-13.83351587162826	-22.71969054556056	0.1522988583368626	-0.01671889759980145	0.01594030281759686	-0.2485240068951002	0.02306405313887023	-0.05986670113064937	0.1202584579614799	-0.1786068765579352	-0.1786068765603618	-0.01618576305936763	-0.001289393876551668	-0.08700140670103935	-0.002108052498345311	-2.229840852467322e-09	4.442350866341128e-09	-2.77722233410835e-09	1.445758956860687e-09	-3.980955697115225e-09	6.284371648359906e-09	-4.740189782265018e-10
0.54	-0.005669850658495551	0.07550828334844449	0.9283937726880869	0.2496788331143678	-0.2598947537527863	-0.3255578812781784	-0.4394520569234179	0.2339164755258979	0.2339164755259036	-0.1039721160810758	-0.1744782601885326	0.03080903058177288	0.04991961116564455	0.08297696676956463	0.05529009283348794	0.01816668256392459	-0.1955692649521331	0.03726825191531006	-0.04405922563482476	-0.11616794414806	-0.06936092603997428	-0.06936092603999611	0.05702473129435068	0.0001045068955389357	0.06096798338916553	0.06401151970119343	-0.07164041650345575	0.1019186143838323	-0.006668978494180283	-0.09399469340636038	0.0587350321447183	-0.05034437948324338	0.1523174183812484	-30.06204176323022	22.98971048982887	0.6076653856724281	5.205788962101701	-704.9559041048092	-13.77751965178574	-22.70723007993573	0.152947872652708	-0.01827083352921359	0.01602501884254547	-0.2512920768891262	0.02173232482658553	-0.05642641375036309	0.1230988397846219	-0.1848894464088654	-0.1848894464088631	-0.02202809199598098	0.002403456472545432	-0.09248288390390733	-0.005785986511987249	-2.125165420773089e-09	4.383314930830107e-09	-2.734299584865781e-09	1.386023160780762e-09	-3.83164413814297e-09	6.308883981495994e-09	-4.548809032928695e-10
0.55	-0.00483259441727171	0.07606023828629127	0.9285762110794237	0.2477108863363428	-0.2595210178429146	-0.32600134652498	-0.4406073523379788	0.2332137878188885	0.2332137878189272	-0.1034029760243572	-0.1744772128421849	0.03141409244073127	0.05055940285474299	0.08446881689434584	0.05509830755614835	0.01832000567973618	-0.1980120117065994	0.03747581300969615	-0.04463391190635752	-0.1148791808190027	-0.07117736493298671	-0.0711773649329951	0.05679596201766612	0.0001025613065776301	0.06003882497661564	0.06394114984603913	-0.07170786572695745	0.1022557865292671	-0.006634200332641098	-0.09287996869906052	0.05710373354420263	-0.0502972960057379	0.1525778091302342	-30.58212379519824	23.03708845112289	0.6266534628438478	5.339240555832868	-704.9538001291286	-13.72418839020156	-22.69443057517894	0.1464836448862412	-0.02002018066459119	0.01483670435747596	-0.2395544710269973	0.01980090839185958	-0.05800241190050895	0.1335587711905057	-0.1801334576980463	-0.1801334576960121	-0.02439885425206365	-0.001854252565602144	-0.09396714624397284	-0.008513032853096158	-2.065659936051206e-09	4.334583425907963e-09	-2.712191423734153e-09	1.365118226221682e-09	-3.815957321503493e-09	6.298230634943057e-09	-4.380691876170315e-10
